<svg width="288" height="64" viewBox="0 0 288 64" fill="none"
    xmlns="http://www.w3.org/2000/svg">
    <path fillRule="evenodd" clip-rule="evenodd" d="M19.235 48.8407C18.6775 48.7722 18.1238 48.6748 17.5762 48.5487C16.3912 48.1947 15.6935 47.8098 15.4828 47.3938C15.2458 46.969 15.1537 46.7567 15.2063 46.7169C15.259 46.677 15.3643 47.0354 15.8251 47.4602C16.6294 47.979 17.5929 48.1865 18.5372 48.0443C19.3881 47.9818 20.2428 48.0901 21.0519 48.3629C22.0014 48.6803 22.8915 49.1559 23.685 49.7699C24.0334 50.0344 24.3633 50.3227 24.6725 50.6328C24.3286 50.3402 23.9479 50.0947 23.5402 49.9027C22.1899 49.3026 20.7466 48.9433 19.2745 48.8407H19.235ZM31.8346 50.6328C31.9004 50.3407 32.8879 49.6638 34.7706 48.5885C35.7578 48.1603 36.8316 47.9737 37.904 48.0443C38.8524 48.1814 39.8183 47.9744 40.6293 47.4602C41.077 47.0354 41.2744 46.7832 41.2349 46.7169C41.1954 46.6505 41.2349 47.0752 40.7873 47.6062C40.3397 48.1372 39.2206 48.5354 37.2457 48.8275C35.7814 48.9255 34.346 49.285 33.0064 49.8894C32.2033 50.3407 31.8346 50.5797 31.8741 50.6195L31.8346 50.6328ZM29.9124 36.8009C29.6993 36.9273 29.4928 37.0647 29.2936 37.2124L29.162 37.3186L29.004 36.5752C29.7954 36.0661 30.7006 35.7649 31.6371 35.6991C32.022 35.6529 32.4109 35.6529 32.7957 35.6991H33.0985L33.3882 35.7655L33.928 35.885C34.2848 35.9514 34.6507 35.9514 35.0076 35.885C35.3506 35.7905 35.6786 35.6475 35.9818 35.4602C36.5182 35.1006 36.9901 34.6517 37.3774 34.1328C37.66 33.7609 37.9111 33.3657 38.1278 32.9514L38.3517 32.4602C38.3517 32.4602 38.2858 32.646 38.1542 32.9646C37.9637 33.3937 37.7391 33.8065 37.4827 34.1991C37.1343 34.773 36.6887 35.2807 36.1661 35.6991C35.8507 35.9212 35.5047 36.0956 35.1392 36.2169C34.7512 36.3342 34.3452 36.3792 33.9411 36.3496L33.3487 36.2567H33.0722H32.8089C32.4545 36.2164 32.0968 36.2164 31.7425 36.2567C31.1241 36.3336 30.5256 36.5272 29.9783 36.8275L29.9124 36.8009ZM21.4864 32.0222C21.6069 32.1211 21.7213 32.2275 21.8287 32.3407C22.0558 32.5486 22.2979 32.7394 22.5528 32.9115C23.3621 33.5109 24.2477 33.9976 25.1859 34.3585L25.3703 34.4248C25.4019 34.68 25.4503 34.9328 25.5151 35.1815L25.3308 35.1151L25.1859 35.0354C24.155 34.5724 23.1969 33.9597 22.3421 33.2168C22.1052 33.0045 21.8682 32.7921 21.6444 32.5531L21.3284 32.2213L21.0519 31.8496C20.9488 31.7439 20.8562 31.6283 20.7754 31.5044L20.5253 31.146L20.3146 30.8142L20.1435 30.4823L19.9855 30.177L19.8538 29.8983L19.6695 29.4336L19.5378 29.0221L19.6958 29.4204L19.9328 29.8717L20.0776 30.1239C20.1268 30.2258 20.1841 30.3234 20.2488 30.416C20.3022 30.5254 20.3685 30.6279 20.4463 30.7213L20.6833 31.0399L20.9334 31.385C21.0364 31.485 21.1332 31.5914 21.2231 31.7036C21.3338 31.7999 21.4352 31.9065 21.5259 32.0222H21.4864ZM24.0274 28.3452C23.8979 28.0508 23.8178 27.7368 23.7904 27.416C23.7768 27.12 23.8124 26.8239 23.8957 26.5399C23.9732 26.2958 24.0747 26.0601 24.1985 25.8363C24.3954 25.5054 24.6344 25.202 24.9095 24.9337C25.0093 24.8334 25.1196 24.7443 25.2386 24.6682C25.1305 24.7481 25.0332 24.8418 24.9489 24.9469C24.6955 25.2276 24.4787 25.5399 24.3038 25.8761C24.2071 26.1042 24.1279 26.3394 24.0668 26.5797C24.014 26.847 24.014 27.1221 24.0668 27.3894C24.1094 27.6764 24.1984 27.9544 24.3302 28.2124C24.4776 28.4711 24.6543 28.7117 24.8568 28.9292L25.1859 29.2345L25.3571 29.3673L25.5414 29.5266C25.7977 29.7163 26.0279 29.9395 26.226 30.1903C26.2744 30.2535 26.3184 30.32 26.3577 30.3894C26.2329 30.5517 26.1227 30.725 26.0285 30.9071C25.9613 30.766 25.8866 30.6286 25.8047 30.4956C25.642 30.2691 25.4568 30.0601 25.2518 29.8717L25.0938 29.7257C24.9259 29.5911 24.75 29.467 24.5671 29.354L24.1722 29.1284L23.7509 28.9027C23.6112 28.8254 23.466 28.7589 23.3164 28.7036L22.8819 28.531L22.4738 28.3982L22.2763 28.3319H22.1052L21.776 28.2655H21.5259H21.3152H21.539H21.776H22.1183H22.2895H22.487L22.9083 28.3717L23.3691 28.5177L23.8167 28.6903L24.2643 28.8894L24.4882 28.9956C24.316 28.7794 24.1702 28.5432 24.0537 28.2921L24.0274 28.3452ZM25.6994 36.9204C25.6103 36.8545 25.5129 36.8009 25.4098 36.7611C24.8768 36.4976 24.3018 36.3313 23.7114 36.27C23.3127 36.2367 22.912 36.2367 22.5133 36.27L21.8682 36.3629L21.2362 36.4691C20.802 36.5474 20.3601 36.5741 19.9196 36.5487C19.4726 36.5346 19.0296 36.4587 18.6031 36.323C17.8779 36.0923 17.2125 35.7024 16.6546 35.1815C16.261 34.8212 15.9158 34.4106 15.6276 33.9602L15.3248 33.4425L15.6408 33.947C15.7702 34.1368 15.9108 34.3185 16.0621 34.4912C16.2614 34.711 16.477 34.9152 16.7072 35.1018C16.9769 35.3251 17.268 35.5207 17.5762 35.6859C17.9204 35.8649 18.2822 36.0072 18.6557 36.1106C19.0518 36.2094 19.4592 36.254 19.867 36.2434C20.3109 36.2493 20.7536 36.1957 21.1836 36.0841L21.4864 36.0177L21.8287 35.9248L22.4738 35.7921C22.9097 35.7279 23.3498 35.6969 23.7904 35.6991C24.0052 35.6858 24.2207 35.6858 24.4355 35.6991L25.0411 35.7921L25.3308 35.885C25.5151 35.9329 25.6956 35.9951 25.8706 36.0708C25.9247 36.1724 25.9687 36.2792 26.0022 36.3894C26.5532 37.6277 27.2757 38.7808 28.1482 39.8142C26.6886 37.2563 26.2197 34.2442 26.8316 31.3584V31.239C26.9319 30.8163 27.0685 30.4033 27.2398 30.0045C27.2789 29.9277 27.3275 29.8563 27.3846 29.7921L27.6611 29.4204C27.8066 29.1933 27.9217 28.9478 28.0034 28.6903C28.0492 28.4536 28.0492 28.2102 28.0034 27.9735C27.97 27.7597 27.9126 27.5504 27.8322 27.3496C27.7565 27.2008 27.6684 27.0587 27.5689 26.9248C27.4804 26.8033 27.3788 26.6921 27.2661 26.593L27.6084 26.8982C27.7214 27.0292 27.8269 27.1667 27.9244 27.3098C28.0395 27.5066 28.1323 27.7159 28.2009 27.9336C28.2481 28.2059 28.2481 28.4844 28.2009 28.7567C28.167 29.0736 28.0825 29.3829 27.9507 29.6726C27.9053 29.7377 27.8698 29.8093 27.8454 29.885C27.795 29.9419 27.7589 30.0102 27.7401 30.0841C27.6611 30.2191 27.595 30.3613 27.5426 30.5089C27.4259 30.7816 27.3248 31.0608 27.2398 31.3452C27.1733 31.6428 27.125 31.9442 27.095 32.2478C27.0752 32.4597 27.0752 32.6731 27.095 32.885C27.1985 33.5846 27.3795 34.2703 27.6348 34.9292L27.9639 34.1859V34.1062C28.0297 33.9337 28.0956 33.7478 28.1746 33.562C28.2535 33.3761 28.3457 33.1106 28.4247 32.8717C28.5037 32.6328 28.609 32.3805 28.688 32.1283C28.767 31.8761 28.846 31.5974 28.9118 31.3319C28.9777 31.0664 29.0435 30.8009 29.0961 30.5222C29.1488 30.2434 29.1883 30.0045 29.2278 29.7523L29.3068 29.0089C29.3068 28.77 29.3068 28.5576 29.3068 28.3452C29.3068 28.1328 29.3068 27.9469 29.3068 27.7744C29.3068 27.6018 29.3068 27.6151 29.3068 27.5487C29.3068 27.4823 29.3068 27.4027 29.3068 27.3496V26.9646C29.3068 26.9646 29.3068 27.0974 29.399 27.3496C29.4028 27.4159 29.4028 27.4824 29.399 27.5487C29.399 27.5487 29.399 27.6814 29.399 27.7744C29.399 27.8673 29.399 28.1328 29.4648 28.3319C29.5306 28.531 29.4648 28.7832 29.4648 29.0221C29.4648 29.2611 29.4648 29.5133 29.4648 29.7788C29.4648 30.0443 29.4648 30.3097 29.399 30.5885C29.3331 30.8673 29.32 31.0664 29.2936 31.3053C29.3782 31.1927 29.4706 31.0862 29.5701 30.9868C29.6685 30.8696 29.774 30.7588 29.8861 30.6549L30.2416 30.3098L30.6497 29.9912L30.8472 29.8451L31.0578 29.6992L31.2685 29.5664L31.4791 29.4469L31.6898 29.3408L31.9004 29.2478C31.9717 29.2377 32.0394 29.2103 32.0979 29.1682H32.2823L32.5456 29.1151L32.822 29.0487H33.0459H32.822L32.5456 29.1151L32.2296 29.2345L32.0584 29.3142L31.861 29.4071L31.6635 29.5133L31.466 29.6328L31.2685 29.7523L31.071 29.9115L30.8604 30.0575L30.676 30.2168C30.5484 30.3171 30.4295 30.4281 30.3206 30.5487L29.9783 30.8938L29.7018 31.2522L29.4516 31.5708L29.2673 31.8629C29.2169 31.9293 29.1728 32.0004 29.1356 32.0753L29.0567 32.208C29.063 32.2386 29.063 32.2703 29.0567 32.3009C28.9908 32.5797 28.9382 32.8319 28.8723 33.0974C28.8065 33.3629 28.7538 33.5089 28.7012 33.7213V33.6549L28.609 34L28.451 34.4779V34.6239L28.7012 34.4248C28.9317 34.2615 29.1788 34.1236 29.4385 34.0133C30.0214 33.7897 30.6505 33.7167 31.2685 33.8009C31.5528 33.8338 31.8399 33.8338 32.1243 33.8009C32.3965 33.7747 32.6656 33.7214 32.9274 33.6416C33.7192 33.3184 34.3785 32.7332 34.7969 31.9823L34.9812 31.6107L34.8232 31.9956C34.6767 32.3295 34.4863 32.642 34.2571 32.9248C33.9147 33.323 33.4931 33.6441 33.0195 33.8673C32.7428 33.9912 32.4504 34.0761 32.1506 34.1195C31.8443 34.1529 31.5353 34.1529 31.229 34.1195C30.6841 34.0886 30.1403 34.1983 29.6491 34.4381C29.3107 34.6044 29.0069 34.8341 28.7538 35.1151L28.5827 35.3009C28.3673 35.5593 28.194 35.8505 28.0692 36.1637C28.2253 36.7878 28.4368 37.3965 28.7012 37.9823C29.3767 39.4551 30.2639 40.8193 31.3343 42.031C30.6036 41.0643 30.0344 39.9837 29.6491 38.8319C29.9124 39.2169 30.2021 39.6151 30.518 40.0399C31.6309 41.4738 32.5435 43.0549 33.2302 44.739C32.8268 44.7909 32.4298 44.8843 32.0453 45.0177C30.9394 43.239 30.3206 42.2832 30.1757 42.1505C30.3511 42.9069 30.3751 43.691 30.2462 44.4568C30.1173 45.2227 29.8383 45.9549 29.4253 46.6106C28.9796 47.0004 28.5858 47.4465 28.2535 47.9381C28.0317 47.6386 27.7897 47.3548 27.5294 47.0885C28.6617 45.885 28.7758 44.2434 27.8717 42.1637C27.0385 40.6021 26.3975 38.9439 25.9627 37.2257C25.8249 37.1221 25.6797 37.029 25.5282 36.9469L25.6994 36.9204ZM25.2913 48.1505C26.0143 48.4255 26.7219 48.7401 27.4109 49.0929C26.95 48.7339 26.4662 48.4058 25.9627 48.1106C24.7243 47.3344 23.3386 46.828 21.8945 46.6239C21.3657 46.5552 20.8303 46.5552 20.3015 46.6239C21.5717 46.2999 22.9056 46.332 24.159 46.7169C25.174 47.007 26.1378 47.4548 27.016 48.0443C27.2793 48.2036 27.5031 48.3629 27.6743 48.4823L27.1871 48.031C26.1984 47.1261 25.019 46.4589 23.7377 46.0797C23.2108 45.9179 22.6677 45.8155 22.1183 45.7744C23.3466 45.6394 24.5865 45.8848 25.6731 46.4779C26.4804 46.882 27.229 47.3956 27.8981 48.0045L28.2009 48.2699L28.4642 48.0177C29.1407 47.4086 29.8931 46.891 30.7024 46.4779C31.7895 45.8864 33.0289 45.6411 34.2571 45.7744C33.7026 45.8171 33.1548 45.924 32.6246 46.093C31.3352 46.4851 30.1482 47.1606 29.1488 48.0708L28.7143 48.4823L29.2936 48.0974C30.1836 47.5208 31.1498 47.0739 32.1638 46.7699C33.4456 46.3688 34.8123 46.3321 36.1135 46.6637C35.5716 46.5927 35.0228 46.5927 34.4809 46.6637C32.9941 46.8768 31.5705 47.4111 30.3074 48.2301C29.8515 48.5001 29.4119 48.7971 28.9908 49.1195C29.4648 48.8673 30.0836 48.5885 30.8472 48.2699C32.9161 47.3531 35.1762 46.9612 37.43 47.1284C37.6518 47.1541 37.8716 47.194 38.0883 47.2478H37.4564C35.6471 47.3167 33.8642 47.7076 32.1901 48.4027C30.7638 48.998 29.4117 49.7598 28.1614 50.6726C26.8039 49.6772 25.3206 48.8692 23.7509 48.2699C22.1964 47.653 20.5491 47.3073 18.8796 47.2478H18.2871C18.5127 47.194 18.7413 47.1541 18.9717 47.1284C21.1359 46.9514 23.3101 47.3114 25.3044 48.177L25.2913 48.1505ZM13.6396 16.3186C16.5201 13.4139 20.1905 11.4359 24.1864 10.6351C28.1822 9.83428 32.3238 10.2465 36.0872 11.8197C39.8505 13.3929 43.0665 16.0563 45.328 19.4729C47.5896 22.8895 48.7951 26.9057 48.7921 31.0133C48.8214 35.61 47.3192 40.0835 44.5264 43.7168C44.2762 44.0222 43.9339 44.3938 43.5126 44.8452C43.1031 45.1874 42.6623 45.4896 42.196 45.7478C42.424 45.1283 42.5313 44.4703 42.512 43.8098C42.512 43.9956 42.196 44.5664 41.4456 45.5089C40.6951 46.4514 39.2601 46.6372 37.1931 46.0664C36.9539 45.9554 36.721 45.8313 36.4953 45.6947C35.7083 45.1801 34.7992 44.8869 33.8621 44.8452C33.2355 43.2603 32.4127 41.7617 31.4133 40.385C31.6097 40.1273 31.7449 39.8275 31.8083 39.5089C32.3744 40.239 32.7562 40.4381 32.98 40.1328C33.2039 39.8274 33.3092 39.6151 33.296 39.5089C33.7042 39.8142 33.9016 39.8142 33.9016 39.5089C33.9253 39.3327 33.9253 39.1541 33.9016 38.9779C34.6784 39.5354 35.126 39.5221 35.2182 38.9779C35.2839 38.6404 35.2839 38.2933 35.2182 37.9558C35.8633 37.823 36.074 37.5841 35.8765 37.2257C35.9327 37.2635 35.9961 37.2891 36.0626 37.3009C36.1292 37.3127 36.1974 37.3105 36.2631 37.2943C36.3287 37.278 36.3902 37.2482 36.4438 37.2067C36.4974 37.1652 36.5418 37.1129 36.5743 37.0531C36.6612 36.913 36.7277 36.761 36.7718 36.6018C37.1404 37.3319 37.4959 37.677 37.8119 37.6505C38.1278 37.6239 38.2858 37.5708 38.2858 37.5177C38.5755 37.823 38.8256 37.8894 39.0363 37.7434C39.2469 37.5974 39.3522 37.4912 39.3654 37.4381C39.892 38.0885 40.2738 38.3274 40.5372 38.1416C40.6951 38.9248 40.919 39.2699 41.2218 39.1903C41.5246 39.1106 41.6957 39.0443 41.7352 38.9779C42.4725 38.8806 42.7622 38.6549 42.6042 38.3009C43.0869 38.5133 43.3634 38.4735 43.4336 38.1814C43.4691 38.0062 43.4691 37.8256 43.4336 37.6505C44.0524 37.6505 44.3552 37.6505 44.3289 37.3717C44.3121 37.2335 44.2624 37.1014 44.1841 36.9867C44.3252 36.8186 44.4192 36.6155 44.4562 36.3984C44.4933 36.1813 44.472 35.9583 44.3947 35.7522C44.2104 35.4248 44.0919 35.2522 44.0392 35.2345C44.2497 35.3334 44.4823 35.3745 44.7135 35.3535C44.9447 35.3325 45.1663 35.2502 45.3558 35.1151C45.6323 34.8496 45.7771 34.7036 45.7771 34.6372C46.1063 35.0885 46.3696 35.2345 46.5539 35.0752C46.7382 34.9159 46.8304 34.8098 46.8304 34.7567C47.2648 34.4248 47.3175 34.1991 47.0147 34.0797C47.6466 33.9469 47.9231 33.7744 47.8705 33.5222C47.8386 33.3669 47.771 33.2214 47.673 33.0974C47.9626 32.5133 47.989 32.1018 47.673 31.8761C47.357 31.6505 47.2385 31.5576 47.1727 31.5708C47.5413 30.7744 47.5018 30.2434 47.0674 30.0974C46.8283 29.9647 46.5629 29.8876 46.2906 29.8717C46.2906 29.0089 46.0536 28.5443 45.6718 28.4115C45.29 28.2788 45.0662 28.2788 45.0003 28.3319C44.6054 27.3894 44.2762 27.0044 43.9997 27.2832C43.9997 26.3009 43.6969 25.8363 43.2756 25.8496C42.8543 25.8629 42.6173 25.9425 42.5515 26.0222C42.2224 25 41.9459 24.6947 41.7089 24.8806C41.7089 24.1903 41.6167 23.8452 41.3666 23.8452C41.1165 23.8452 40.9453 23.8452 40.9058 23.8452C40.603 23.3673 40.3397 23.208 40.1027 23.3806C39.8657 23.5531 39.7604 23.6593 39.7472 23.7257C39.3654 23.593 39.0889 23.5797 38.9309 23.7257C39.1021 22.7965 39.0231 22.3983 38.6808 22.3983C39.0494 21.9469 39.1284 21.6284 38.9309 21.4425C38.7335 21.2567 38.6018 21.177 38.536 21.1903C38.536 20.6195 38.4701 20.2611 38.1542 20.1416C37.8382 20.0221 37.667 19.9425 37.6012 19.969C37.8382 19.2124 37.7724 18.8673 37.4169 18.9204C37.6714 18.1151 37.6714 17.6726 37.4169 17.593C37.1404 17.593 36.9692 17.5266 36.9034 17.593C36.5084 16.8142 36.153 16.4691 35.837 16.5576C35.5342 16.6505 35.3762 16.7301 35.363 16.8098C35.0602 16.1195 34.7837 15.8806 34.5336 16.0797C34.2044 15.3761 33.8621 15.0576 33.4803 15.1505C33.2548 15.1835 33.0415 15.2749 32.8615 15.4159C32.607 15.062 32.3832 14.9691 32.1901 15.1372C31.997 15.3053 31.8917 15.4248 31.8741 15.4956C31.3738 15.4956 31.0578 15.6151 30.8999 15.9071C30.4522 15.6947 30.1231 15.6549 29.9388 15.8009C29.6754 15.2168 29.399 14.9647 29.083 15.031C28.767 15.0974 28.609 15.1637 28.5827 15.2168C28.0297 14.885 27.7138 14.8319 27.6084 15.0841C27.4109 14.6062 27.1213 14.4602 26.7527 14.6328C26.5213 14.7253 26.3041 14.8504 26.1075 15.0044C25.9685 14.8928 25.7918 14.8401 25.6149 14.8575C25.438 14.8748 25.2747 14.9609 25.1596 15.0974C24.9943 15.2464 24.8483 15.4159 24.7251 15.6018C24.4882 15.3363 24.1722 15.3363 23.7904 15.6018C23.5599 15.7431 23.3477 15.9125 23.1584 16.1062C22.6354 15.9134 22.0578 15.9373 21.5522 16.1726C21.3298 16.2886 21.122 16.4313 20.9334 16.5974C20.319 16.5974 20.0162 16.8363 20.025 17.3142C20.0242 17.5798 20.0641 17.8441 20.1435 18.0974C19.2614 18.2036 18.8269 18.4425 18.9191 18.7876C19.0112 19.1328 19.0507 19.3186 19.1297 19.3584C18.7611 19.3584 18.5636 19.5575 18.5504 19.8894C18.5162 20.0826 18.5162 20.2803 18.5504 20.4735C18.483 20.4515 18.4117 20.4442 18.3412 20.4522C18.2708 20.4601 18.2028 20.483 18.1418 20.5194C18.0808 20.5558 18.0282 20.6048 17.9874 20.6633C17.9466 20.7218 17.9186 20.7883 17.9053 20.8584C17.8304 21.0269 17.7815 21.206 17.7605 21.3894C17.4445 21.0575 17.168 21.0177 16.931 21.2965C16.7797 21.4496 16.6511 21.624 16.5492 21.8142C16.2596 21.5222 16.0094 21.5222 15.8119 21.8142C15.6918 21.984 15.5902 22.1665 15.5091 22.3584C14.6007 22.5974 14.1926 22.8761 14.3374 23.1947C13.8634 23.2744 13.6396 23.4868 13.6791 23.8584C13.6971 24.0681 13.7459 24.2739 13.8239 24.4691C13.2315 24.6814 12.9813 24.9735 13.0998 25.3319C12.2572 25.4779 11.7832 25.7965 11.7832 26.3142C11.7573 26.6095 11.7886 26.907 11.8754 27.1903C11.3224 27.1903 11.0855 27.3629 11.1513 27.7213C10.5852 28.1593 10.5193 28.4912 10.9406 28.7301C11.1887 28.8869 11.4597 29.0034 11.7437 29.0753C12.2177 29.4204 12.5205 29.4204 12.6522 29.0753C12.7575 29.7788 12.9418 30.1505 13.192 30.2036C12.6258 30.6284 12.4284 30.9204 12.5995 31.0664C12.461 31.0497 12.3212 31.0852 12.207 31.166C12.0928 31.2469 12.0122 31.3674 11.9807 31.5044C11.9051 31.6773 11.8563 31.8609 11.8359 32.0487C11.2566 31.7567 10.9143 31.7832 10.8221 32.0487C10.1639 32.0487 9.83471 32.2611 9.82154 32.8452C9.7962 33.1967 9.82282 33.5502 9.90054 33.8938C9.55823 34.4248 9.55823 34.8098 9.90054 35.0487C10.0722 35.2069 10.2737 35.3288 10.493 35.4071C10.493 35.8053 10.73 35.9779 11.3488 35.9381C11.7113 35.9409 12.0732 35.9053 12.4284 35.8319C12.165 36.3452 12.1914 36.6637 12.5074 36.7876C12.6947 36.8735 12.8949 36.9273 13.0998 36.9469C13.0998 37.6239 13.2841 37.8762 13.5343 37.7169C13.4158 38.4735 13.5343 38.8584 13.8239 38.8584C13.9424 39.416 14.1136 39.5753 14.3637 39.323C14.5299 39.1699 14.6759 38.9959 14.7982 38.8053C15.0861 38.8835 15.3876 38.8967 15.6812 38.8439C15.9748 38.7911 16.2532 38.6737 16.4966 38.5C16.7335 38.9779 16.9705 39.1107 17.2075 38.9115C17.3626 38.7993 17.4963 38.66 17.6025 38.5C17.7259 38.6533 17.8945 38.7629 18.0839 38.813C18.2733 38.8631 18.4736 38.8512 18.6557 38.7788C18.8862 38.7149 19.1075 38.6213 19.314 38.5C19.2175 39.1726 19.3228 39.5841 19.63 39.7345C19.9328 39.8673 20.1171 39.9071 20.1698 39.8805C20.5648 40.6239 20.8676 40.77 21.0914 40.3319C21.2521 40.0749 21.3679 39.7921 21.4337 39.4956C21.9472 39.9469 22.2895 40.0133 22.4343 39.6814C22.5481 39.4959 22.62 39.2875 22.645 39.0708C23.1058 39.4558 23.4744 39.5222 23.7377 39.2567C24.001 38.9912 24.1458 38.8053 24.1458 38.739L24.9884 39.4956L25.9759 39.6284C26.3257 40.6084 26.7346 41.5659 27.2003 42.4956C27.5254 43.0352 27.7113 43.6483 27.7412 44.279C27.7711 44.9096 27.644 45.5378 27.3714 46.1062C27.262 46.3307 27.1248 46.5403 26.9633 46.7301C26.1427 45.9601 25.1622 45.3843 24.0932 45.0443C23.391 44.8466 22.6549 44.8036 21.9348 44.9181C21.2146 45.0326 20.5274 45.302 19.9196 45.708C19.6984 45.8445 19.4698 45.9686 19.235 46.0797C17.168 46.6505 15.7461 46.4779 14.9957 45.5221C14.2452 44.5664 13.8634 44.0089 13.9029 43.823C13.8836 44.4835 13.9909 45.1416 14.2189 45.7611C13.753 45.5177 13.3121 45.2287 12.9023 44.8983C12.4271 44.4037 11.9871 43.8758 11.5858 43.3186C8.68282 39.3163 7.29439 34.3996 7.67101 29.4558C8.04763 24.5121 10.1645 19.8668 13.6396 16.3585V16.3186ZM28.214 8.85842C23.1279 8.8623 18.2004 10.6439 14.271 13.8999C10.3415 17.1558 7.65314 21.6846 6.66385 26.7147C5.67456 31.7449 6.44553 36.9653 8.84543 41.4866C11.2453 46.0079 15.1257 49.5506 19.8255 51.5109C24.5253 53.4713 29.7539 53.7282 34.6205 52.2379C39.4871 50.7476 43.6908 47.6021 46.5153 43.3375C49.3399 39.0729 50.6106 33.9528 50.1111 28.8495C49.6116 23.7462 47.3728 18.9753 43.7759 15.3496C41.7337 13.2879 39.3076 11.6531 36.6371 10.5391C33.9665 9.42521 31.1041 8.85405 28.214 8.85842Z" fill="#D8A382"/>
    <path d="M28.201 63.9995L27.5822 63.734C22.9413 61.7103 18.596 59.0576 14.6666 55.8491C5.34528 48.2031 0.408137 38.7783 0 27.7871V11.2605L0.526628 10.796C8.28295 4.29983 18.0928 0.823901 28.1746 0.999507C38.2564 0.823901 48.0663 4.29983 55.8226 10.796L56.3624 11.2605V27.7871C55.9411 38.7252 51.004 48.1499 41.6827 55.796C37.7498 58.9995 33.4052 61.6519 28.7671 63.6809L28.201 63.9995ZM3.1861 12.7207V27.7871C3.56791 37.703 8.11008 46.3712 16.6941 53.3933C20.2244 56.2719 24.11 58.6769 28.2536 60.5482C32.3912 58.6731 36.2719 56.2684 39.8 53.3933C48.3708 46.3579 52.9657 37.7296 53.308 27.7473V12.7207C46.2015 7.0381 37.3622 4.01266 28.2931 4.15881C19.1751 3.982 10.2802 7.00897 3.13344 12.7207H3.1861Z" fill="#D8A382"/>
    <path d="M79.6527 34.4247C78.8496 34.4247 76.7299 34.3584 75.3738 34.3584C74.0177 34.3584 71.8849 34.3583 71.0818 34.4247V33.9336C72.767 33.6548 72.9118 32.9513 72.9118 29.1946V15.1106C72.9118 11.3407 72.767 10.6371 71.0818 10.3716V9.86719C71.8849 9.86719 74.0046 9.93354 75.3738 9.93354C77.4145 9.93354 78.9944 9.86719 80.0608 9.86719C86.512 9.86719 89.8429 12.9867 89.8429 16.7167C89.8429 20.1548 86.7358 23.0752 81.9435 23.0752C80.6264 23.1525 79.3117 22.8873 78.1254 22.3052L78.4283 21.8672C79.1232 22.1648 79.8719 22.314 80.6269 22.3052C83.5234 22.3052 84.5766 20.0088 84.5766 16.7167C84.5766 12.8539 82.8519 10.876 79.5868 10.876C78.9974 10.8591 78.4106 10.963 77.8621 11.1813V29.1946C77.8621 32.9513 78.007 33.6548 79.6922 33.9336L79.6527 34.4247Z" fill="white" fill-opacity="0.9"/>
    <path d="M114.594 34.199C114.594 34.199 114.265 34.5043 112.356 34.5043C110.909 34.5622 109.483 34.1479 108.288 33.323C106.629 32.0752 105.431 29.553 101.837 23.5132H100.626V29.1946C100.626 32.9512 100.77 33.6548 102.456 33.9336V34.4247C101.653 34.4247 99.5197 34.3583 98.1636 34.3583C96.8075 34.3583 94.6879 34.3583 93.8716 34.4247V33.9336C95.5568 33.6548 95.7148 32.9512 95.7148 29.1946V15.1106C95.7148 11.3407 95.5568 10.6371 93.8716 10.3716V9.86719C94.6879 9.86719 96.8075 9.93354 98.2031 9.93354C100.178 9.93354 101.797 9.86719 102.824 9.86719C109.315 9.86719 112.501 12.5884 112.501 16.584C112.501 19.4778 110.816 21.4955 106.787 22.7698C108.393 25.9955 112.87 33.3893 114.594 33.9336V34.199ZM102.324 22.5973C105.879 22.5973 107.235 20.8583 107.235 16.9557C107.235 13.053 105.734 10.876 102.469 10.876C101.857 10.8495 101.247 10.9535 100.678 11.1813V22.5973H102.324Z" fill="white" fill-opacity="0.9"/>
    <path d="M131.012 34.7037C123.929 34.7037 117.438 29.6594 117.438 22.3055C117.438 14.9515 123.929 9.76123 131.012 9.76123C138.095 9.76123 144.573 14.8453 144.573 22.3055C144.573 29.7656 138.082 34.7037 131.012 34.7037ZM139.188 22.3055C139.188 14.4338 136.555 10.8364 131.012 10.8364C125.469 10.8364 122.836 14.4338 122.836 22.3055C122.836 30.1771 125.469 33.6285 131.012 33.6285C136.555 33.6285 139.188 30.0577 139.188 22.3055Z" fill="white" fill-opacity="0.9"/>
    <path d="M157.725 34.4247C156.922 34.4247 154.789 34.3584 153.433 34.3584C152.077 34.3584 149.957 34.3583 149.154 34.4247V33.9336C150.84 33.6548 150.984 32.9513 150.984 29.1946V15.1106C150.984 11.3407 150.84 10.6371 149.154 10.3716V9.86719C149.957 9.86719 152.077 9.93354 153.433 9.93354C155.487 9.93354 157.067 9.86719 158.133 9.86719C164.585 9.86719 167.915 12.9867 167.915 16.7167C167.915 20.1548 164.808 23.0752 160.016 23.0752C158.699 23.1525 157.384 22.8873 156.198 22.3052L156.501 21.8672C157.195 22.1659 157.944 22.3151 158.699 22.3052C161.596 22.3052 162.649 20.0088 162.649 16.7167C162.649 12.8539 160.924 10.876 157.659 10.876C157.07 10.8591 156.483 10.963 155.935 11.1813V29.1946C155.935 32.9513 156.079 33.6548 157.765 33.9336L157.725 34.4247Z" fill="white" fill-opacity="0.9"/>
    <path d="M190.35 34.4248C189.586 34.4248 187.598 34.3584 186.4 34.3584C185.202 34.3584 182.332 34.3584 181.516 34.4248V33.9336C182.661 33.7212 183.056 33.2832 183.056 32.5132C182.973 31.5995 182.751 30.7041 182.398 29.8584L181.226 26.6327C179.91 26.6327 178.593 26.6327 177.197 26.6327C175.394 26.6327 174.564 26.6327 173.524 26.6327L173.09 27.6681C172.426 29.0375 172.015 30.5175 171.879 32.0354C171.815 32.4647 171.916 32.9022 172.16 33.2596C172.405 33.6169 172.775 33.8673 173.195 33.9601V34.4248C172.392 34.4248 170.812 34.3584 169.456 34.3584C168.1 34.3584 167.323 34.3584 166.56 34.4248V33.9336C168.613 33.2832 169.706 31.7035 171.76 26.8318L179.172 9.4292H180.384L187.598 29.9247C188.441 32.2743 189.284 33.4557 190.35 33.907V34.4248ZM177.632 16.584L174.077 25.1327C174.841 25.1327 175.539 25.1327 177.158 25.1327C178.33 25.1327 179.501 25.1327 180.673 25.1327L177.632 16.584Z" fill="white" fill-opacity="0.9"/>
    <path d="M217.84 32.2745C217.602 32.163 217.338 32.1172 217.076 32.1417C214.733 32.1417 213.008 34.7037 207.031 34.7037C197.894 34.7037 192.549 28.7833 192.549 22.1329C192.549 15.947 197.236 9.76123 207.439 9.76123C211.797 9.76123 214.364 10.9161 217.3 10.9161C217.221 11.8453 217.182 13.0931 217.182 14.4072C217.182 15.7214 217.182 16.6506 217.261 17.5665H216.708C214.654 12.2568 210.994 10.8364 207.623 10.8364C201.791 10.8364 197.933 14.978 197.933 22.3984C197.933 29.8187 201.883 33.6285 207.36 33.6285C209.382 33.7646 211.376 33.0976 212.916 31.7701V27.7878C212.916 24.0311 212.758 23.3276 211.073 23.0488V22.478C211.889 22.478 214.009 22.5444 215.365 22.5444C216.721 22.5444 218.854 22.5444 219.657 22.478V22.9825C217.972 23.2612 217.827 24.1639 217.827 27.9205C217.751 29.3347 217.812 30.753 218.011 32.155L217.84 32.2745Z" fill="white" fill-opacity="0.9"/>
    <path d="M244.514 34.4248C243.737 34.4248 241.762 34.3584 240.564 34.3584C239.366 34.3584 236.496 34.3584 235.693 34.4248V33.9336C236.825 33.7212 237.233 33.2832 237.233 32.5132C237.143 31.6006 236.921 30.7062 236.575 29.8584L235.403 26.6327C234.086 26.6327 232.77 26.6327 231.361 26.6327C229.571 26.6327 228.728 26.6327 227.701 26.6327L227.267 27.6681C226.603 29.0375 226.192 30.5175 226.055 32.0354C225.989 32.4652 226.088 32.9043 226.333 33.2624C226.578 33.6205 226.95 33.8702 227.372 33.9601V34.4248C226.556 34.4248 224.989 34.3584 223.633 34.3584C222.277 34.3584 221.5 34.3584 220.736 34.4248V33.9336C222.79 33.2832 223.883 31.7035 225.937 26.8318L233.349 9.4292H234.547L241.775 29.9247C242.618 32.2743 243.46 33.4557 244.527 33.907L244.514 34.4248ZM231.796 16.584L228.241 25.1327C229.018 25.1327 229.715 25.1327 231.322 25.1327C232.506 25.1327 233.678 25.1327 234.85 25.1327L231.796 16.584Z" fill="white" fill-opacity="0.9"/>
    <path d="M258.825 34.4249C258.008 34.4249 255.889 34.3585 254.533 34.3585C253.177 34.3585 251.044 34.3585 250.241 34.4249V33.9337C251.926 33.655 252.071 32.9514 252.071 29.1948V11.4735H251.662C246.212 11.4735 245.804 12.655 245.33 15.0709H244.737C244.737 14.2744 244.816 12.8939 244.816 11.4735C244.816 10.8364 244.816 10.1461 244.816 9.62842C246.133 10.1328 248.332 10.2656 254.638 10.2656C260.325 10.2656 263.038 10.1328 264.315 9.62842C264.315 10.1992 264.315 10.8364 264.315 11.4735C264.315 12.8939 264.315 14.2744 264.315 15.0709H263.735C263.248 12.655 262.853 11.4735 257.39 11.4735H256.981V29.1948C256.981 32.9514 257.126 33.655 258.825 33.9337V34.4249Z" fill="white" fill-opacity="0.9"/>
    <path d="M285.946 27.6814C285.946 29.2876 285.827 32.1813 285.827 34.4247C283.089 34.3583 277.178 34.3584 272.78 34.3584C271.464 34.3584 269.291 34.3583 268.488 34.4247V33.9336C270.173 33.6548 270.318 32.9513 270.318 29.1946V15.1106C270.318 11.3407 270.173 10.6371 268.488 10.3716V9.86719C269.291 9.86719 271.424 9.93354 272.78 9.93354C277.178 9.93354 283.234 9.93356 285.946 9.86719C285.946 10.7035 285.867 12.1504 285.867 13.5973C285.867 14.4734 285.867 15.3097 285.867 16.0132H285.314C283.405 11.1415 281.496 11.1415 277.652 11.1415C276.82 11.1411 275.99 11.1854 275.163 11.2743V21.1504H277.428C279.811 21.1504 281.535 20.9114 282.299 18.2566H282.852C282.852 19.2654 282.707 20.407 282.707 21.3761C282.707 22.7035 282.786 23.9645 282.852 24.7743H282.299C281.786 22.4513 279.811 22.2919 277.428 22.2919H275.269V33.0043C276.095 33.0932 276.926 33.1375 277.757 33.1371C281.062 33.1371 283.55 32.9114 285.419 27.6681L285.946 27.6814Z" fill="white" fill-opacity="0.9"/>
    <path d="M71.1738 55.0133C71.6034 55.0152 72.0273 54.9152 72.4114 54.7213C72.5957 54.5753 72.6879 54.2036 72.6879 53.593V46.5974C72.74 46.1996 72.6412 45.7967 72.4114 45.4691C72.0345 45.256 71.6054 45.1547 71.1738 45.177V44.885H75.795V45.177C75.3632 45.1525 74.9335 45.2539 74.5574 45.4691C74.3276 45.7967 74.2289 46.1996 74.2809 46.5974V53.593C74.2809 54.2036 74.3731 54.5753 74.5574 54.7213C74.9401 54.9191 75.365 55.0193 75.795 55.0133V55.3054H71.1738V55.0133Z" fill="white" fill-opacity="0.9" stroke="white" stroke-width="0.24" stroke-miterlimit="10"/>
    <path d="M77.23 55.0133C77.7078 55.0388 78.1776 54.8825 78.5466 54.5753C78.7863 54.0813 78.8822 53.529 78.823 52.9824V46.0399L78.5992 45.7877C78.4441 45.5797 78.2466 45.4076 78.0199 45.2832C77.7844 45.2153 77.5408 45.1796 77.2958 45.177V44.885H79.929L85.9589 52.4248V47.1814C86.0294 46.5961 85.8943 46.0043 85.577 45.5089C85.2471 45.2841 84.8561 45.1681 84.458 45.177V44.885H88.1049V45.177C87.6673 45.1793 87.244 45.334 86.9068 45.6151C86.6508 46.0988 86.5496 46.6507 86.6171 47.1947V55.4912H86.3538L79.4418 46.8496V53.0089C79.375 53.5966 79.5047 54.1899 79.8105 54.6947C80.1311 54.9198 80.5125 55.0403 80.9032 55.0399V55.3319H77.23V55.0133Z" fill="white" fill-opacity="0.9" stroke="white" stroke-width="0.24" stroke-miterlimit="10"/>
    <path d="M89.5795 44.885H98.3742L98.4532 47.5399H98.0846C98.0093 46.9362 97.7675 46.3659 97.3868 45.8939C96.8507 45.5766 96.2275 45.4416 95.6094 45.5089H94.7405V53.5664C94.7405 54.1771 94.8327 54.5487 95.017 54.6947C95.3997 54.8925 95.8246 54.9928 96.2546 54.9868V55.2788H91.7914V54.9868C92.2278 55.0057 92.6595 54.8899 93.029 54.6549C93.2498 54.2505 93.3331 53.7842 93.2659 53.3275V45.4558H92.397C91.7834 45.3932 91.1659 45.528 90.6328 45.8408C90.2206 46.2943 89.9704 46.8736 89.9218 47.4868H89.54L89.5795 44.885Z" fill="white" fill-opacity="0.9" stroke="white" stroke-width="0.24" stroke-miterlimit="10"/>
    <path d="M99.9277 55.0133C100.32 55.0077 100.705 54.9027 101.047 54.708C101.218 54.562 101.297 54.1903 101.297 53.593V46.5974C101.345 46.2119 101.257 45.8216 101.047 45.4956C100.718 45.2687 100.325 45.1568 99.9277 45.177V44.885H108.222V47.1416H107.827C107.781 46.6453 107.572 46.1785 107.235 45.8142C106.685 45.5533 106.075 45.4478 105.47 45.5089H103.39C103.166 45.5089 103.022 45.5089 102.969 45.6284C102.904 45.7551 102.877 45.8979 102.89 46.0399V49.5576H105.299C105.761 49.6261 106.231 49.5172 106.616 49.2523C106.863 48.8948 107.013 48.4783 107.05 48.0443H107.419V51.6815H107.05C107.002 51.2478 106.848 50.8329 106.603 50.4735C106.217 50.2108 105.746 50.1063 105.286 50.1815H102.89V54.0841C102.89 54.3894 102.982 54.5753 103.18 54.6284C103.763 54.7191 104.354 54.7503 104.944 54.7213C105.741 54.7656 106.539 54.6435 107.287 54.3629C107.908 53.973 108.374 53.3766 108.604 52.677H109.038L108.327 55.3319H99.9277V55.0133Z" fill="white" fill-opacity="0.9" stroke="white" stroke-width="0.24" stroke-miterlimit="10"/>
    <path d="M110.408 55.0133C110.8 55.0077 111.185 54.9027 111.527 54.708C111.698 54.562 111.777 54.1903 111.777 53.593V46.5974C111.825 46.2119 111.737 45.8216 111.527 45.4956C111.198 45.2705 110.805 45.1587 110.408 45.177V44.885H114.818V45.177C114.414 45.1634 114.014 45.2597 113.66 45.4558C113.462 45.6151 113.37 45.9602 113.37 46.4912V54.0576C113.362 54.1949 113.39 54.332 113.449 54.4558C113.496 54.5165 113.556 54.5659 113.624 54.6003C113.692 54.6348 113.768 54.6534 113.844 54.6549H114.213H114.937C115.889 54.7162 116.844 54.5992 117.754 54.3098C118.403 53.8841 118.901 53.2611 119.176 52.531H119.571L118.807 55.2656H110.408V55.0133Z" fill="white" fill-opacity="0.9" stroke="white" stroke-width="0.24" stroke-miterlimit="10"/>
    <path d="M120.888 55.0133C121.28 55.0055 121.664 54.9006 122.007 54.708C122.178 54.562 122.257 54.1903 122.257 53.593V46.5974C122.305 46.2119 122.217 45.8216 122.007 45.4956C121.678 45.2705 121.285 45.1587 120.888 45.177V44.885H125.298V45.177C124.894 45.1634 124.494 45.2597 124.14 45.4558C123.942 45.6151 123.85 45.9602 123.85 46.4912V54.0576C123.842 54.1949 123.87 54.332 123.929 54.4558C123.973 54.5162 124.031 54.5656 124.097 54.6001C124.163 54.6347 124.236 54.6534 124.311 54.6549H124.693H125.417C126.369 54.7162 127.324 54.5992 128.234 54.3098C128.883 53.8841 129.381 53.2611 129.656 52.531H130.051L129.287 55.2656H120.888V55.0133Z" fill="white" fill-opacity="0.9" stroke="white" stroke-width="0.24" stroke-miterlimit="10"/>
    <path d="M131.367 55.0133C131.76 55.0055 132.144 54.9006 132.487 54.708C132.699 54.3784 132.788 53.9829 132.737 53.593V46.5974C132.785 46.2119 132.696 45.8216 132.487 45.4956C132.157 45.2705 131.765 45.1587 131.367 45.177V44.885H139.662V47.1416H139.267C139.22 46.6453 139.012 46.1785 138.674 45.8142C138.12 45.5522 137.506 45.4467 136.897 45.5089H134.83C134.593 45.5089 134.461 45.5089 134.409 45.6284C134.332 45.7506 134.299 45.8961 134.317 46.0399V49.5576H136.726C137.187 49.6288 137.658 49.5196 138.042 49.2523C138.288 48.8928 138.442 48.4779 138.49 48.0443H138.859V51.6815H138.49C138.442 51.2478 138.288 50.8329 138.042 50.4735C137.655 50.2133 137.186 50.109 136.726 50.1815H134.317V54.0841C134.317 54.3894 134.422 54.5753 134.619 54.6284C135.198 54.7194 135.785 54.7506 136.37 54.7213C137.172 54.7651 137.974 54.6431 138.727 54.3629C139.344 53.9689 139.808 53.374 140.044 52.677H140.504L139.794 55.3319H131.367V55.0133Z" fill="white" fill-opacity="0.9" stroke="white" stroke-width="0.24" stroke-miterlimit="10"/>
    <path d="M149.181 44.9512C149.509 45.0558 149.843 45.1401 150.181 45.2034C150.33 45.203 150.476 45.1617 150.603 45.0839C150.74 44.9954 150.839 44.8579 150.879 44.699H151.208L151.353 48.2432H151.037C150.87 47.6314 150.593 47.0556 150.221 46.5441C149.911 46.1427 149.51 45.8222 149.052 45.6096C148.594 45.3971 148.092 45.2987 147.588 45.3229C147.076 45.3197 146.571 45.4383 146.114 45.669C145.656 45.8996 145.259 46.2358 144.955 46.6503C144.206 47.692 143.838 48.9634 143.915 50.2477C143.85 51.4654 144.24 52.6634 145.007 53.6061C145.345 54.0112 145.769 54.3347 146.248 54.5529C146.726 54.7711 147.247 54.8785 147.772 54.8671C148.556 54.8722 149.327 54.6708 150.01 54.2831C150.488 54.0013 150.93 53.6626 151.327 53.2742L151.617 53.5663C151.249 54.031 150.804 54.4264 150.3 54.7344C149.452 55.2864 148.465 55.5813 147.456 55.584C146.72 55.6125 145.987 55.4815 145.305 55.1998C144.624 54.9182 144.011 54.4924 143.506 53.9512C142.604 52.9221 142.132 51.5804 142.19 50.2079C142.148 48.7843 142.663 47.4013 143.625 46.3583C144.127 45.814 144.74 45.3853 145.422 45.1012C146.103 44.8172 146.838 44.6845 147.575 44.7123C148.118 44.7209 148.658 44.8012 149.181 44.9512ZM147.39 44.699L144.533 50.0087L147.39 44.699Z" fill="white" fill-opacity="0.9" stroke="white" stroke-width="0.24" stroke-miterlimit="10"/>
    <path d="M153.328 44.885H162.162L162.241 47.5399H161.873C161.797 46.9362 161.555 46.3659 161.175 45.8939C160.635 45.5746 160.007 45.4396 159.384 45.5089H158.515V53.5664C158.515 54.1771 158.607 54.5487 158.805 54.6947C159.188 54.8925 159.613 54.9928 160.043 54.9868V55.2788H155.487V54.9868C155.923 55.0032 156.354 54.8876 156.725 54.6549C156.946 54.2505 157.029 53.7842 156.962 53.3275V45.4558H156.08C155.466 45.3977 154.85 45.5322 154.315 45.8408C153.913 46.2993 153.668 46.8766 153.618 47.4868H153.236L153.328 44.885Z" fill="white" fill-opacity="0.9" stroke="white" stroke-width="0.24" stroke-miterlimit="10"/>
    <path d="M168.153 44.8849V45.1769C167.745 45.162 167.342 45.2681 166.994 45.4822C166.81 45.6415 166.717 46.0132 166.717 46.5973V51.6813C166.688 52.3406 166.805 52.9983 167.06 53.6061C167.284 54.0317 167.63 54.3794 168.052 54.6043C168.475 54.8292 168.955 54.9208 169.43 54.8672C169.95 54.9355 170.478 54.8457 170.947 54.6092C171.417 54.3726 171.805 54.0002 172.063 53.5397C172.353 52.8344 172.479 52.0716 172.431 51.3096V47.2079C172.501 46.6537 172.395 46.0916 172.129 45.6017C171.799 45.3378 171.391 45.1929 170.97 45.1902V44.8982H174.577V45.1902C174.143 45.1863 173.722 45.3421 173.392 45.6282C173.154 46.1178 173.058 46.6656 173.116 47.2079V51.3096C173.165 52.1881 172.992 53.0647 172.616 53.8583C172.2 54.3815 171.673 54.8037 171.074 55.0939C170.474 55.3841 169.818 55.5347 169.153 55.5347C168.488 55.5347 167.832 55.3841 167.233 55.0939C166.633 54.8037 166.106 54.3815 165.691 53.8583C165.333 53.1248 165.166 52.3119 165.203 51.4955V46.584C165.255 46.1965 165.161 45.8034 164.94 45.4822C164.6 45.2584 164.2 45.147 163.795 45.1636V44.8716L168.153 44.8849Z" fill="white" fill-opacity="0.9" stroke="white" stroke-width="0.24" stroke-miterlimit="10"/>
    <path d="M175.947 55.3052V55.0132C176.12 55.0021 176.29 54.9565 176.446 54.8791C176.601 54.8016 176.741 54.6938 176.855 54.5618C177.261 53.8822 177.604 53.1668 177.882 52.4246L181.134 44.699H181.45L185.4 53.6326C185.546 54.0297 185.76 54.398 186.031 54.7211C186.255 54.8963 186.526 54.9982 186.808 55.0132V55.3052H182.859V55.0132C183.157 55.0002 183.453 54.9512 183.741 54.8671C183.812 54.8215 183.869 54.7557 183.904 54.6779C183.939 54.6001 183.951 54.5136 183.938 54.4291C183.949 54.2966 183.949 54.1633 183.938 54.0308C183.877 53.8182 183.802 53.6098 183.714 53.4069L183.096 51.8937H178.817C178.409 52.9291 178.172 53.5529 178.093 53.7786C178.025 53.9526 177.985 54.1363 177.974 54.3229C177.965 54.437 177.991 54.5512 178.047 54.6507C178.103 54.7501 178.188 54.8302 178.29 54.8804C178.533 54.9594 178.785 55.004 179.04 55.0132V55.3052H175.947ZM182.674 51.2565L180.884 46.9291L179.08 51.2565H182.674Z" fill="white" fill-opacity="0.9" stroke="white" stroke-width="0.24" stroke-miterlimit="10"/>
    <path d="M188.112 55.0133C188.504 55.0055 188.888 54.9006 189.231 54.708C189.443 54.3784 189.532 53.9829 189.481 53.593V46.5974C189.529 46.2119 189.44 45.8216 189.231 45.4956C188.901 45.2705 188.509 45.1587 188.112 45.177V44.885H192.509V45.177C192.109 45.1651 191.714 45.2614 191.364 45.4558C191.244 45.5974 191.155 45.7627 191.103 45.9411C191.051 46.1194 191.036 46.3069 191.061 46.4912V54.0576C191.057 54.1962 191.088 54.3334 191.153 54.4558C191.197 54.5162 191.255 54.5656 191.321 54.6001C191.387 54.6347 191.46 54.6534 191.535 54.6549H191.916H192.641C193.593 54.715 194.548 54.598 195.458 54.3098C196.107 53.8841 196.605 53.2611 196.88 52.531H197.275L196.511 55.2656H188.112V55.0133Z" fill="white" fill-opacity="0.9" stroke="white" stroke-width="0.24" stroke-miterlimit="10"/>
    <path d="M202.936 55.0133C203.336 55.0321 203.728 54.9048 204.042 54.6549C204.234 54.2691 204.311 53.836 204.266 53.4071V46.5974C204.315 46.216 204.226 45.8298 204.016 45.5089C203.703 45.2793 203.323 45.1624 202.936 45.177V44.885H207.044C208.114 44.8159 209.179 45.0901 210.085 45.6682C210.416 45.8935 210.685 46.1986 210.869 46.5556C211.053 46.9126 211.146 47.3102 211.139 47.7124C211.171 48.1705 211.08 48.6289 210.873 49.0383C210.667 49.4477 210.353 49.7925 209.967 50.0354C209.078 50.5467 208.066 50.7994 207.044 50.7655H205.82V53.6195C205.82 54.2168 205.912 54.5885 206.096 54.7478C206.469 54.9465 206.886 55.047 207.307 55.0398V55.3319H202.936V55.0133ZM208.203 45.7213C207.667 45.5073 207.093 45.4079 206.517 45.4292C206.319 45.4028 206.118 45.435 205.938 45.5221C205.891 45.5811 205.856 45.6492 205.835 45.7222C205.815 45.7952 205.81 45.8717 205.82 45.9469V50.062H206.373H206.623C207.204 50.0846 207.783 49.9804 208.321 49.7566C208.693 49.5584 208.998 49.2532 209.197 48.8797C209.396 48.5062 209.481 48.0814 209.44 47.6593C209.45 47.2534 209.337 46.8541 209.116 46.5148C208.895 46.1755 208.576 45.9125 208.203 45.7611V45.7213Z" fill="white" fill-opacity="0.9" stroke="white" stroke-width="0.24" stroke-miterlimit="10"/>
    <path d="M212.481 55.0133C212.885 55.0306 213.281 54.9036 213.601 54.6549C213.795 54.27 213.873 53.8361 213.824 53.4071V46.5974C213.866 46.2164 213.778 45.8325 213.574 45.5089C213.256 45.2792 212.872 45.1625 212.481 45.177V44.885H216.866C217.63 44.8639 218.393 44.9808 219.117 45.2301C219.638 45.3836 220.09 45.7124 220.399 46.1618C220.708 46.6111 220.855 47.1538 220.815 47.6991C220.836 48.0392 220.778 48.3794 220.645 48.6928C220.513 49.0062 220.31 49.2841 220.052 49.5044C219.457 49.9693 218.746 50.2588 217.998 50.3407L221.21 54.323C221.377 54.5323 221.577 54.7118 221.803 54.854C222.041 54.9751 222.3 55.0472 222.566 55.0664V55.3584H220.052L216.102 50.5H215.417V53.6062C215.366 53.9979 215.46 54.3949 215.681 54.7213C216.031 54.9192 216.425 55.0242 216.826 55.0265V55.3186H212.495L212.481 55.0133ZM217.814 49.5575C218.202 49.4147 218.534 49.1485 218.76 48.799C218.985 48.4495 219.092 48.0355 219.064 47.6195C219.098 47.2283 219.008 46.8365 218.807 46.5003C218.605 46.164 218.304 45.9006 217.945 45.7478C217.442 45.5536 216.904 45.4633 216.365 45.4823C216.094 45.4623 215.822 45.4939 215.562 45.5752C215.457 45.6416 215.404 45.8009 215.404 46.0265V49.9027C216.22 49.9107 217.032 49.7943 217.814 49.5575Z" fill="white" fill-opacity="0.9" stroke="white" stroke-width="0.24" stroke-miterlimit="10"/>
    <path d="M225.7 46.053C226.67 45.1613 227.935 44.667 229.248 44.667C230.561 44.667 231.826 45.1613 232.796 46.053C233.82 47.151 234.39 48.6013 234.39 50.1083C234.39 51.6154 233.82 53.0657 232.796 54.1636C231.844 55.0485 230.588 55.5247 229.294 55.4911C228.616 55.5092 227.942 55.3852 227.314 55.127C226.687 54.8688 226.119 54.482 225.647 53.9911C225.149 53.4605 224.763 52.8347 224.509 52.1507C224.256 51.4666 224.141 50.7383 224.172 50.0088C224.143 49.279 224.264 48.551 224.527 47.8703C224.79 47.1897 225.189 46.571 225.7 46.053ZM226.858 53.7654C227.136 54.1374 227.496 54.439 227.91 54.6464C228.323 54.8537 228.779 54.9611 229.241 54.9601C229.697 54.9598 230.147 54.8558 230.557 54.6559C230.967 54.4559 231.328 54.1651 231.611 53.8052C232.254 52.6739 232.593 51.3925 232.593 50.0884C232.593 48.7843 232.254 47.503 231.611 46.3716C231.327 46.0173 230.968 45.7312 230.56 45.5337C230.152 45.3363 229.707 45.2326 229.254 45.23C228.794 45.229 228.34 45.3365 227.929 45.5439C227.517 45.7514 227.16 46.053 226.885 46.4247C226.251 47.5424 225.917 48.8076 225.917 50.0951C225.917 51.3826 226.251 52.6478 226.885 53.7654H226.858Z" fill="white" fill-opacity="0.9" stroke="white" stroke-width="0.24" stroke-miterlimit="10"/>
    <path d="M236.127 55.0133C236.53 55.0283 236.926 54.9016 237.246 54.6548C237.431 54.267 237.504 53.8347 237.457 53.407V46.5973C237.502 46.218 237.418 45.8345 237.22 45.5088C236.901 45.2819 236.517 45.1654 236.127 45.177V44.8849H240.248C241.314 44.8178 242.374 45.0919 243.276 45.6681C243.608 45.8918 243.879 46.1964 244.063 46.5538C244.247 46.9112 244.339 47.3098 244.329 47.7124C244.364 48.1692 244.274 48.6267 244.07 49.036C243.866 49.4453 243.555 49.7908 243.171 50.0354C242.282 50.5467 241.271 50.7994 240.248 50.7655H239.024V53.6194C239.024 54.2168 239.103 54.5885 239.287 54.7478C239.66 54.9449 240.077 55.0453 240.498 55.0398V55.3318H236.127V55.0133ZM241.393 45.7212C240.862 45.5072 240.293 45.4077 239.721 45.4292C239.519 45.4046 239.314 45.4367 239.129 45.5221C239.05 45.5885 239.024 45.7345 239.024 45.9469V50.0619H239.563H239.814C240.395 50.0876 240.975 49.9833 241.512 49.7566C241.886 49.5612 242.193 49.2565 242.393 48.8823C242.593 48.5081 242.676 48.0818 242.631 47.6593C242.643 47.253 242.531 46.8528 242.31 46.5132C242.088 46.1735 241.768 45.9109 241.393 45.7611V45.7212Z" fill="white" fill-opacity="0.9" stroke="white" stroke-width="0.24" stroke-miterlimit="10"/>
    <path d="M245.672 55.0133C246.065 55.0077 246.45 54.9027 246.791 54.708C246.963 54.562 247.042 54.1903 247.042 53.593V46.5974C247.09 46.2119 247.001 45.8216 246.791 45.4956C246.463 45.2687 246.07 45.1568 245.672 45.177V44.885H253.967V47.1416H253.572C253.525 46.6453 253.317 46.1785 252.979 45.8142C252.429 45.5533 251.82 45.4478 251.215 45.5089H249.082C248.858 45.5089 248.714 45.5089 248.661 45.6284C248.596 45.7551 248.569 45.8979 248.582 46.0399V49.5576H251.097C251.558 49.6288 252.029 49.5196 252.413 49.2523C252.66 48.8948 252.81 48.4783 252.848 48.0443H253.216V51.6815H252.848C252.799 51.2478 252.645 50.8329 252.4 50.4735C252.014 50.2108 251.543 50.1063 251.083 50.1815H248.674V54.0841C248.674 54.3894 248.766 54.5753 248.964 54.6284C249.547 54.7191 250.138 54.7503 250.728 54.7213C251.525 54.7656 252.323 54.6435 253.071 54.3629C253.692 53.973 254.158 53.3766 254.388 52.677H254.823L254.112 55.3319H245.672V55.0133Z" fill="white" fill-opacity="0.9" stroke="white" stroke-width="0.24" stroke-miterlimit="10"/>
    <path d="M256.152 55.0133C256.758 55.0133 257.127 54.8407 257.271 54.6549C257.466 54.27 257.543 53.8361 257.495 53.4071V46.5974C257.544 46.2161 257.455 45.8298 257.245 45.5089C256.928 45.2774 256.543 45.1605 256.152 45.177V44.885H260.471C261.235 44.8639 261.998 44.9808 262.722 45.2301C263.233 45.3786 263.68 45.6964 263.991 46.1323C264.301 46.5681 264.457 47.0967 264.434 47.6328C264.454 47.9728 264.396 48.3131 264.263 48.6265C264.131 48.9399 263.928 49.2178 263.67 49.4381C263.075 49.903 262.364 50.1925 261.616 50.2744L264.828 54.2567C264.995 54.4659 265.195 54.6454 265.421 54.7876C265.659 54.9087 265.919 54.9809 266.185 55V55.292H263.67L259.72 50.4336H259.022V53.5398C258.971 53.9315 259.065 54.3285 259.286 54.6549C259.64 54.8539 260.039 54.9589 260.444 54.9602V55.2522H256.1L256.152 55.0133ZM261.498 49.5575C261.882 49.4106 262.21 49.143 262.433 48.7942C262.656 48.4453 262.762 48.0335 262.735 47.6195C262.769 47.2283 262.678 46.8365 262.477 46.5003C262.276 46.164 261.975 45.9006 261.616 45.7478C261.112 45.5536 260.575 45.4633 260.036 45.4823C259.765 45.4623 259.493 45.4939 259.233 45.5752C259.128 45.6416 259.075 45.8009 259.075 46.0265V49.9027C259.895 49.9092 260.711 49.7929 261.498 49.5575Z" fill="white" fill-opacity="0.9" stroke="white" stroke-width="0.24" stroke-miterlimit="10"/>
    <path d="M266.711 44.885H275.545L275.624 47.5399H275.256C275.184 46.9328 274.937 46.3604 274.545 45.8939C274.01 45.5729 273.386 45.4377 272.767 45.5089H271.898V53.5664C271.898 54.1771 271.991 54.5487 272.188 54.6947C272.567 54.8904 272.987 54.9906 273.413 54.9868V55.2788H268.87V54.9868C269.303 55.0064 269.73 54.8905 270.095 54.6549C270.329 54.2553 270.418 53.7858 270.345 53.3275V45.4558H269.529C268.915 45.3977 268.299 45.5322 267.764 45.8408C267.362 46.2993 267.117 46.8766 267.067 47.4868H266.685L266.711 44.885Z" fill="white" fill-opacity="0.9" stroke="white" stroke-width="0.24" stroke-miterlimit="10"/>
    <path d="M281.588 44.885V45.177C281.314 45.1545 281.037 45.1814 280.772 45.2567C280.683 45.2866 280.607 45.3464 280.557 45.4262C280.506 45.506 280.485 45.6008 280.496 45.6947C280.486 45.7785 280.486 45.8632 280.496 45.9469C280.556 46.0846 280.627 46.2177 280.706 46.3452L283.01 49.7434L285.248 46.2788C285.32 46.1649 285.382 46.045 285.433 45.9204C285.441 45.8454 285.441 45.7697 285.433 45.6947C285.437 45.5904 285.403 45.4881 285.338 45.4073C285.272 45.3265 285.179 45.2729 285.077 45.2567C284.837 45.1922 284.588 45.1653 284.34 45.177V44.885H287.75V45.177C287.448 45.1862 287.156 45.283 286.907 45.4558C286.385 45.8855 285.94 46.4017 285.591 46.9823L283.287 50.5266V53.593C283.287 54.2036 283.379 54.5753 283.576 54.7345C283.986 54.9333 284.438 55.029 284.893 55.0133V55.3054H280.127V55.0133C280.588 55.0442 281.047 54.933 281.443 54.6947C281.675 54.294 281.763 53.8256 281.694 53.3673V50.6328L279.745 47.6992C279.298 46.9956 278.801 46.3257 278.257 45.6947C278.124 45.5493 277.964 45.4321 277.785 45.3501C277.607 45.268 277.413 45.2227 277.217 45.2169V44.9248L281.588 44.885Z" fill="white" fill-opacity="0.9" stroke="white" stroke-width="0.24" stroke-miterlimit="10"/>
</svg>
